<svg xmlns="http://www.w3.org/2000/svg" viewBox="0 0 1417 605"><defs><style>.cls-1{fill:#30ceb3;}.cls-2{fill:#fff;}</style></defs><g id="gz_larga"><polygon class="cls-1" points="850 513 961 413 1312.46 413 1417 299 1143 299 1417 0 961 0 850 113 1143 113 961 299 961 147 850 258 850 299 664 299 664 113 838 113 949 0 722.65 0 554 179 554 245 722.65 413 850 413 850 513"/></g><g id="Ak_sv_larga"><polygon class="cls-2" points="0 413 163 413 292 269 292 413 403 413 403 269 755 605 755 444 514 204 711 0 546 0 403 147 403 0 0 413"/></g></svg>