<?xml version="1.0" encoding="UTF-8" standalone="no"?>
<!-- Created with Inkscape (http://www.inkscape.org/) -->

<svg
   width="603.58252mm"
   height="142.9594mm"
   viewBox="0 0 603.58252 142.9594"
   version="1.1"
   id="svg1"
   xml:space="preserve"
   xmlns="http://www.w3.org/2000/svg"
   xmlns:svg="http://www.w3.org/2000/svg"><defs
     id="defs1"><style
       id="style1">.cls-1{fill:#30ceb3;}.cls-2{fill:#fff;}</style><style
       id="style1-7">.cls-1{fill:#30ceb3;}.cls-2{fill:#fff;}</style></defs><g
     id="layer7"
     transform="translate(521.20616,142.9594)"><g
       id="g3"><g
         id="g5"><g
           id="g56-8-2"
           transform="matrix(3.1641185,0,0,3.1779143,-649.90117,-501.84269)"
           style="display:inline"><g
             id="g50-2-2"
             transform="matrix(-0.95319559,0,0,-0.95319559,89.253036,158.86131)"><path
               fill="#c1694f"
               d="M 4.048,29.644 C 3.237,29.086 2.507,25.571 3.112,25.24 c 0.738,-0.402 0.686,0.835 2.255,2.362 1.569,1.528 6.47,0.913 7.708,1.326 1.363,0.455 -6.385,2.533 -9.027,0.716 z"
               id="path46-4-1"
               style="fill:#5a2ca0" /><path
               fill="#d99e82"
               d="M 5.367,27.603 C 4,22 4.655,18.919 5.433,16.861 6.8,13.24 16.699,5.169 23.8,2.637 25.678,1.967 31.62,1 35,1 c 0.589,2.332 -1.174,6.717 -1.62,7.518 -1.009,1.81 -3.564,4.273 -8.646,9.482 -0.252,0.258 -5.119,-0.46 -5.376,-0.191 -0.283,0.296 4.044,1.579 3.755,1.889 -0.738,0.79 -1.495,1.624 -2.268,2.507 -0.172,0.196 -8.311,-0.923 -8.484,-0.722 -0.232,0.27 7.501,1.862 7.266,2.14 -0.645,0.765 -1.299,1.564 -1.959,2.397 -1.725,2.178 -12.301,1.583 -12.301,1.583 z"
               id="path47-5-6"
               style="fill:#aa87de" /><path
               fill="#c1694f"
               d="m 19.15,12.787 c 1.588,0.966 5.331,1.943 8.316,2.422 1.898,-1.937 3.299,-3.378 4.302,-4.529 -2.259,-0.49 -5.742,-1.3 -7.487,-2.087 L 23.465,8.19 18.593,12.36 Z"
               id="path48-5-8"
               style="fill:#5a2ca0" /><path
               fill="#662113"
               d="M 35.088,1.514 A 3.85,3.85 0 0 0 35,1 c -0.378,0 -0.792,0.014 -1.225,0.036 -3.438,0.178 -8.307,1.006 -9.975,1.601 -0.345,0.123 -0.702,0.27 -1.059,0.418 -0.478,0.198 -0.964,0.416 -1.459,0.654 0.356,1.481 1.126,3.144 1.807,4.013 a 72.185,72.185 0 0 0 -4.836,4.115 C 12.598,17.085 8.232,22.709 5.248,27.079 c 0.04,0.174 0.076,0.344 0.12,0.524 0,0 0.219,0.012 0.589,0.026 1.482,-2.288 5.703,-8.239 13.194,-14.841 a 91.61,91.61 0 0 1 5.13,-4.195 c 1.745,0.787 5.228,1.597 7.487,2.087 0.322,-0.369 0.606,-0.712 0.849,-1.028 0.316,-0.412 0.569,-0.785 0.763,-1.134 0.415,-0.746 1.969,-4.594 1.708,-7.004 z"
               id="path49-1-5"
               style="fill:#2d1650" /><path
               fill="#c1694f"
               d="M 35,1 C 34.631,1 34.249,0.997 33.862,0.992 29.947,2.866 26.353,5.186 23.09,7.722 22.41,6.852 21.639,5.19 21.283,3.709 a 42.574,42.574 0 0 0 -4.484,2.539 c 0.309,1.911 0.852,4.377 1.455,5.589 C 6.827,22.441 0.638,34.605 0.553,34.776 a 0.50043206,0.50043206 0 0 0 0.895,0.448 C 1.567,34.986 13.592,11.341 35.107,1.504 A 7.693,7.693 0 0 0 35,1 Z"
               id="path50-7-7"
               style="fill:#5a2ca0" /></g><g
             id="g55-1-6"
             transform="matrix(0.95319559,0,0,0.95319559,40.196601,111.98488)"><path
               fill="#c1694f"
               d="M 4.048,29.644 C 3.237,29.086 2.507,25.571 3.112,25.24 c 0.738,-0.402 0.686,0.835 2.255,2.362 1.569,1.528 6.47,0.913 7.708,1.326 1.363,0.455 -6.385,2.533 -9.027,0.716 z"
               id="path51-1-1"
               style="fill:#008066" /><path
               fill="#d99e82"
               d="M 5.367,27.603 C 4,22 4.655,18.919 5.433,16.861 6.8,13.24 16.699,5.169 23.8,2.637 25.678,1.967 31.62,1 35,1 c 0.589,2.332 -1.174,6.717 -1.62,7.518 -1.009,1.81 -3.564,4.273 -8.646,9.482 -0.252,0.258 -5.119,-0.46 -5.376,-0.191 -0.283,0.296 4.044,1.579 3.755,1.889 -0.738,0.79 -1.495,1.624 -2.268,2.507 -0.172,0.196 -8.311,-0.923 -8.484,-0.722 -0.232,0.27 7.501,1.862 7.266,2.14 -0.645,0.765 -1.299,1.564 -1.959,2.397 -1.725,2.178 -12.301,1.583 -12.301,1.583 z"
               id="path52-5-8"
               style="fill:#2ca089" /><path
               fill="#c1694f"
               d="m 19.15,12.787 c 1.588,0.966 5.331,1.943 8.316,2.422 1.898,-1.937 3.299,-3.378 4.302,-4.529 -2.259,-0.49 -5.742,-1.3 -7.487,-2.087 L 23.465,8.19 18.593,12.36 Z"
               id="path53-2-9"
               style="fill:#008066" /><path
               fill="#662113"
               d="M 35.088,1.514 A 3.85,3.85 0 0 0 35,1 c -0.378,0 -0.792,0.014 -1.225,0.036 -3.438,0.178 -8.307,1.006 -9.975,1.601 -0.345,0.123 -0.702,0.27 -1.059,0.418 -0.478,0.198 -0.964,0.416 -1.459,0.654 0.356,1.481 1.126,3.144 1.807,4.013 a 72.185,72.185 0 0 0 -4.836,4.115 C 12.598,17.085 8.232,22.709 5.248,27.079 c 0.04,0.174 0.076,0.344 0.12,0.524 0,0 0.219,0.012 0.589,0.026 1.482,-2.288 5.703,-8.239 13.194,-14.841 a 91.61,91.61 0 0 1 5.13,-4.195 c 1.745,0.787 5.228,1.597 7.487,2.087 0.322,-0.369 0.606,-0.712 0.849,-1.028 0.316,-0.412 0.569,-0.785 0.763,-1.134 0.415,-0.746 1.969,-4.594 1.708,-7.004 z"
               id="path54-7-2"
               style="fill:#165044" /><path
               fill="#c1694f"
               d="M 35,1 C 34.631,1 34.249,0.997 33.862,0.992 29.947,2.866 26.353,5.186 23.09,7.722 22.41,6.852 21.639,5.19 21.283,3.709 a 42.574,42.574 0 0 0 -4.484,2.539 c 0.309,1.911 0.852,4.377 1.455,5.589 C 6.827,22.441 0.638,34.605 0.553,34.776 a 0.50043206,0.50043206 0 0 0 0.895,0.448 C 1.567,34.986 13.592,11.341 35.107,1.504 A 7.693,7.693 0 0 0 35,1 Z"
               id="path55-6-7"
               style="fill:#008066" /></g></g><text
           xml:space="preserve"
           style="font-size:150.113px;font-family:'Yu Gothic UI';-inkscape-font-specification:'Yu Gothic UI';text-align:start;writing-mode:lr-tb;direction:ltr;text-anchor:start;fill:#ffffff;fill-opacity:1;stroke:none;stroke-width:1.56613;stroke-linecap:square;stroke-linejoin:round"
           x="-363.45914"
           y="-19.553833"
           id="text5"><tspan
             id="tspan5"
             style="font-style:normal;font-variant:normal;font-weight:bold;font-stretch:normal;font-family:Lato;-inkscape-font-specification:'Lato Bold';fill:#ffffff;stroke-width:1.56614"
             x="-363.45914"
             y="-19.553833">Ravem</tspan></text></g></g></g></svg>
